<?xml version="1.0" encoding="UTF-8" standalone="no"?>
<svg
   viewBox="0 0 15.521 15.136767"
   width="15.521"
   height="15.136767"
   version="1.1"
   id="svg1"
   sodipodi:docname="icon-github.svg"
   inkscape:version="1.3.2 (091e20e, 2023-11-25)"
   xmlns:inkscape="http://www.inkscape.org/namespaces/inkscape"
   xmlns:sodipodi="http://sodipodi.sourceforge.net/DTD/sodipodi-0.dtd"
   xmlns="http://www.w3.org/2000/svg"
   xmlns:svg="http://www.w3.org/2000/svg">
  <defs
     id="defs1" />
  <sodipodi:namedview
     id="namedview1"
     pagecolor="#ffffff"
     bordercolor="#999999"
     borderopacity="1"
     inkscape:showpageshadow="0"
     inkscape:pageopacity="0"
     inkscape:pagecheckerboard="0"
     inkscape:deskcolor="#d1d1d1"
     inkscape:zoom="14.75"
     inkscape:cx="7.6949153"
     inkscape:cy="7.559322"
     inkscape:window-width="712"
     inkscape:window-height="480"
     inkscape:window-x="0"
     inkscape:window-y="25"
     inkscape:window-maximized="0"
     inkscape:current-layer="svg1" />
  <path
     fill="#828282"
     d="M 7.76,0 C 3.475,0 0,3.474 0,7.761 c 0,3.428 2.223,6.337 5.307,7.363 0.388,0.071 0.53,-0.168 0.53,-0.374 0,-0.184 -0.007,-0.672 -0.01,-1.32 C 3.668,13.899 3.213,12.39 3.213,12.39 2.86,11.494 2.351,11.255 2.351,11.255 1.646,10.774 2.404,10.783 2.404,10.783 c 0.779,0.055 1.189,0.8 1.189,0.8 0.692,1.186 1.816,0.843 2.258,0.645 C 5.922,11.726 6.122,11.385 6.344,11.191 4.621,10.994 2.81,10.329 2.81,7.355 2.81,6.508 3.112,5.815 3.609,5.273 3.529,5.076 3.262,4.287 3.685,3.219 c 0,0 0.652,-0.209 2.134,0.796 C 6.438,3.842 7.101,3.756 7.761,3.753 8.42,3.756 9.084,3.842 9.704,4.014 11.186,3.01 11.836,3.218 11.836,3.218 c 0.423,1.068 0.157,1.857 0.077,2.054 0.497,0.542 0.798,1.235 0.798,2.082 0,2.981 -1.814,3.637 -3.543,3.829 0.279,0.24 0.527,0.713 0.527,1.437 0,1.037 -0.01,1.874 -0.01,2.129 0,0.208 0.14,0.449 0.534,0.373 C 13.3,14.094 15.521,11.187 15.521,7.76 15.521,3.475 12.046,0 7.76,0 Z"
     id="path1" />
</svg>
