<?xml version="1.0" encoding="UTF-8" standalone="no"?>
<svg
   width="16.000011"
   height="16.864805"
   viewBox="0 0 15.999996 16.864788"
   fill="#000000"
   version="1.1"
   id="svg1"
   sodipodi:docname="icon-mastodon_sm.svg"
   inkscape:version="1.3.2 (091e20e, 2023-11-25)"
   xmlns:inkscape="http://www.inkscape.org/namespaces/inkscape"
   xmlns:sodipodi="http://sodipodi.sourceforge.net/DTD/sodipodi-0.dtd"
   xmlns="http://www.w3.org/2000/svg"
   xmlns:svg="http://www.w3.org/2000/svg">
  <defs
     id="defs1" />
  <sodipodi:namedview
     id="namedview1"
     pagecolor="#ffffff"
     bordercolor="#999999"
     borderopacity="1"
     inkscape:showpageshadow="0"
     inkscape:pageopacity="0"
     inkscape:pagecheckerboard="0"
     inkscape:deskcolor="#d1d1d1"
     showgrid="false"
     inkscape:zoom="36.585066"
     inkscape:cx="7.9950655"
     inkscape:cy="8.4324024"
     inkscape:window-width="1440"
     inkscape:window-height="830"
     inkscape:window-x="0"
     inkscape:window-y="25"
     inkscape:window-maximized="0"
     inkscape:current-layer="svg1" />
  <path
     d="M 15.935381,3.7337124 C 15.688938,1.9216584 14.09236,0.4936376 12.199741,0.21692507 11.880433,0.17016696 10.670622,0 7.8681017,0 h -0.02093 C 5.0438955,0 4.4424706,0.17016696 4.1231636,0.21692507 2.2832351,0.48597275 0.60297517,1.7691228 0.19530874,3.6026211 -7.7370897e-4,4.50558 -0.02169957,5.5066576 0.01472689,6.4249462 0.06665385,7.741828 0.07672926,9.0563963 0.19763391,10.367916 c 0.0835845,0.871175 0.22939594,1.73541 0.43634223,2.586218 0.38751426,1.571367 1.95617686,2.879039 3.49305776,3.412549 1.6454645,0.556367 3.415015,0.648712 5.1105547,0.266745 0.1865076,-0.04292 0.3709825,-0.09275 0.5533603,-0.149469 0.4115441,-0.129535 0.8943971,-0.27442 1.2493571,-0.528906 0.0049,-0.0036 0.0089,-0.0081 0.01168,-0.0135 0.0028,-0.0053 0.0044,-0.01117 0.0046,-0.01717 v -1.27087 c -8.7e-5,-0.0056 -0.0014,-0.01111 -0.0039,-0.01613 -0.0025,-0.005 -0.0061,-0.0094 -0.01061,-0.01286 -0.0045,-0.0035 -0.0096,-0.0059 -0.01516,-0.0071 -0.0055,-0.0012 -0.01126,-0.0012 -0.01679,6.5e-5 -1.086309,0.256648 -2.1994941,0.385296 -3.3163551,0.383263 -1.9220689,0 -2.4390183,-0.90218 -2.587061,-1.277789 -0.1189774,-0.32465 -0.1945448,-0.663243 -0.2247499,-1.007243 -3.028e-4,-0.0058 7.782e-4,-0.01155 0.00314,-0.01685 0.00236,-0.0053 0.00596,-0.0099 0.010486,-0.0136 0.00454,-0.0037 0.00989,-0.0062 0.01559,-0.0074 0.0057,-0.0013 0.011633,-0.0011 0.017297,3.23e-4 1.0682124,0.254897 2.1632355,0.383545 3.2621072,0.383264 0.2642802,0 0.527782,0 0.7920837,-0.0069 1.1051851,-0.03066 2.2700461,-0.08662 3.3574151,-0.296647 0.02714,-0.0054 0.05424,-0.01 0.07752,-0.01687 1.715129,-0.325772 3.347339,-1.348298 3.513198,-3.937608 0.0062,-0.1019456 0.02171,-1.0677583 0.02171,-1.173531 7.77e-4,-0.3595013 0.117037,-2.5501963 -0.01706,-3.8962024 z M 13.295628,10.194684 H 11.492154 V 5.8255321 c 0,-0.9198238 -0.387523,-1.3889248 -1.175737,-1.3889248 -0.8664832,0 -1.3004923,0.5549602 -1.3004923,1.6510644 V 8.4792092 H 7.2232824 V 6.0876717 c 0,-1.0961042 -0.4347878,-1.6510644 -1.301271,-1.6510644 -0.7835648,0 -1.174958,0.469101 -1.1757364,1.3889248 V 10.194684 H 2.9443354 V 5.6929271 c 0,-0.9198237 0.2374262,-1.650567 0.712257,-2.1922515 C 4.1464068,2.9602883 4.7889126,2.682819 5.5864233,2.682819 c 0.9230453,0 1.620578,0.3510473 2.0855927,1.0524287 L 8.120771,4.4803044 8.5702829,3.7352477 C 9.0352975,3.0338663 9.7328302,2.682819 10.65434,2.682819 c 0.796733,0 1.439217,0.2774693 1.930588,0.8178566 0.474853,0.5411656 0.712257,1.2719089 0.712257,2.1922515 z"
     fill="inherit"
     id="path1"
     style="stroke-width:0.216216" />
  <path
     style="fill:#808080;stroke:#808080;stroke-width:0.0273336"
     d="M 6.3960524,16.822215 C 5.7183677,16.75988 5.0581434,16.632695 4.4279398,16.443081 2.8791527,15.977086 1.5442031,14.919145 0.91787263,13.661371 0.72004156,13.264094 0.60997714,12.874614 0.43874602,11.965909 0.21631591,10.785497 0.14250756,9.8748962 0.05153344,7.1887256 -0.01099891,5.3423484 0.02679122,4.4589276 0.20280417,3.6524649 0.47828723,2.3902467 1.3245362,1.3532885 2.5994576,0.71570577 3.6557184,0.18747419 4.9570948,0.01437285 7.8720645,0.01437485 c 2.6020345,1.79e-6 4.2998085,0.13614299 5.1291375,0.41129553 1.457885,0.48369305 2.601357,1.70543302 2.876159,3.07302492 0.108579,0.5403623 0.12788,1.9925185 0.0574,4.3187021 -0.04576,1.5103865 -0.07463,1.7466012 -0.287257,2.3506856 -0.449247,1.276321 -1.428456,2.112166 -2.911519,2.485249 -0.770992,0.193952 -1.794812,0.310779 -3.2512416,0.370995 -1.7267644,0.07139 -2.9303315,-0.01092 -4.2183879,-0.288486 -0.1703291,-0.03671 -0.3271554,-0.06674 -0.3485029,-0.06674 -0.1226823,0 0.079013,0.929309 0.2761594,1.272404 0.1571694,0.273522 0.4793284,0.57199 0.7826787,0.725121 0.2303281,0.116269 0.5946683,0.231508 0.9113647,0.28826 0.2141724,0.03838 0.4153272,0.04877 0.929341,0.04802 0.9738856,-0.0014 1.8625378,-0.09225 2.7901916,-0.28516 0.21805,-0.04535 0.408239,-0.07516 0.422644,-0.06626 0.01546,0.0096 0.02619,0.272257 0.02619,0.641384 v 0.625198 l -0.08146,0.05801 c -0.136886,0.09747 -0.571731,0.291157 -0.888876,0.395918 -0.6266468,0.206997 -1.256386,0.347164 -1.9133494,0.425872 -0.3345928,0.04009 -1.4407501,0.05524 -1.7766812,0.02434 z M 4.7701803,7.8652311 C 4.7706944,5.3260942 4.7716114,5.308618 4.9196426,5.0164928 5.0788352,4.7023414 5.3273223,4.5311929 5.7178869,4.4666925 5.9907149,4.4216359 6.2788505,4.4659788 6.538077,4.5929164 6.765437,4.7042493 6.8991306,4.8423876 7.0134002,5.0840417 7.1869399,5.4510384 7.1856965,5.4377636 7.1958153,7.0315576 l 0.00924,1.4555119 h 0.9128101 0.9128099 l 0.00971,-1.4555119 C 9.0498713,5.6104663 9.0515701,5.5711997 9.1122197,5.3711328 9.1917079,5.108922 9.2906223,4.9283205 9.4375371,4.7771563 9.8284937,4.3748916 10.67448,4.3385867 11.083701,4.7065125 c 0.177275,0.159385 0.260029,0.3028678 0.328032,0.5687583 0.05263,0.2057798 0.05469,0.3029345 0.05469,2.5738324 v 2.3599808 h 0.916715 0.916715 L 13.2901,7.6055623 C 13.279531,4.7856817 13.286621,4.9255592 13.129754,4.4417031 13.046778,4.1857637 12.82656,3.7719358 12.667993,3.5739717 12.436804,3.2853441 12.062556,3.0071822 11.718369,2.8681588 10.984662,2.5718013 9.9961812,2.6143955 9.3634159,2.9696349 8.9592013,3.1965644 8.7134048,3.4624401 8.3489577,4.0669635 L 8.1217175,4.4438969 8.0337143,4.2992988 C 7.6830896,3.7231861 7.5841817,3.5760099 7.4410873,3.417463 7.0673501,3.0033664 6.5747237,2.7642325 5.9444605,2.6909604 5.0881739,2.5914118 4.2895279,2.8435184 3.7490737,3.3839723 3.3804485,3.7525976 3.1577805,4.183551 3.0118994,4.8107061 2.9563546,5.0494972 2.9544074,5.1322214 2.9454669,7.6328959 l -0.00921,2.5761881 h 0.9167246 0.9167248 z"
     id="path2" />
</svg>
