<?xml version="1.0" encoding="UTF-8" standalone="no"?>
<!-- Uploaded to: SVG Repo, www.svgrepo.com, Generator: SVG Repo Mixer Tools -->

<svg
   width="15.944"
   height="15.999903"
   viewBox="0 0 15.943999 15.999904"
   fill="none"
   version="1.1"
   id="svg1"
   sodipodi:docname="rss-feed-svgrepo-com.svg"
   inkscape:version="1.3.2 (091e20e, 2023-11-25)"
   xmlns:inkscape="http://www.inkscape.org/namespaces/inkscape"
   xmlns:sodipodi="http://sodipodi.sourceforge.net/DTD/sodipodi-0.dtd"
   xmlns="http://www.w3.org/2000/svg"
   xmlns:svg="http://www.w3.org/2000/svg">
  <defs
     id="defs1" />
  <sodipodi:namedview
     id="namedview1"
     pagecolor="#ffffff"
     bordercolor="#999999"
     borderopacity="1"
     inkscape:showpageshadow="0"
     inkscape:pageopacity="0"
     inkscape:pagecheckerboard="0"
     inkscape:deskcolor="#d1d1d1"
     inkscape:zoom="39.605556"
     inkscape:cx="7.966054"
     inkscape:cy="8.0039275"
     inkscape:window-width="1224"
     inkscape:window-height="847"
     inkscape:window-x="0"
     inkscape:window-y="25"
     inkscape:window-maximized="0"
     inkscape:current-layer="svg1" />
  <path
     d="m 0.98094868,6.9862977 c 4.41827992,0 7.99999992,3.5817003 7.99999992,8.0000003 M 0.98094868,0.98629767 c 7.73199992,0 14.00000032,6.26800003 14.00000032,14.00000033 m -12.0000004,-1 c 0,0.5523 -0.44772,1 -1,1 -0.55228,0 -0.99999992,-0.4477 -0.99999992,-1 0,-0.5523 0.44771992,-1 0.99999992,-1 0.55228,0 1,0.4477 1,1 z"
     stroke="#000000"
     stroke-width="2"
     stroke-linecap="round"
     stroke-linejoin="round"
     id="path1" />
  <path
     style="fill:#808080;fill-opacity:0.831373;stroke:#808080;stroke-width:0.101695"
     d="M 1.4275071,15.820926 C 0.85132658,15.610901 0.54649958,15.353203 0.28151738,14.852114 c -0.586473,-1.109038 0.03078,-2.407386 1.30801132,-2.751308 1.1545272,-0.310882 2.3951034,0.772132 2.2984038,2.006489 -0.097147,1.240072 -1.355409,2.116423 -2.4604254,1.713631 z"
     id="path2" />
  <path
     style="fill:#808080;fill-opacity:0.831373;stroke:#808080;stroke-width:0.101695"
     d="m 1.4870346,15.711792 c -1.03958692,-0.314834 -1.62451882,-1.520669 -1.17244252,-2.416985 0.4227081,-0.838088 1.29227572,-1.298434 2.06144032,-1.09132 0.5329161,0.1435 1.0111332,0.553484 1.2442725,1.066739 0.2296146,0.505495 0.2385411,0.863424 0.033756,1.353543 -0.390579,0.934788 -1.2493215,1.365946 -2.1670263,1.088023 z"
     id="path3" />
  <path
     style="fill:#808080;fill-opacity:0.831373;stroke:#808080;stroke-width:0.101695"
     d="M 8.5210875,15.770868 C 8.1568398,15.548771 7.9824363,15.086338 7.9815159,14.340186 7.9812039,14.087367 7.8862995,13.538962 7.7706171,13.121508 6.964968,10.214226 4.4808744,8.1796795 1.4732292,7.9637602 0.70887968,7.9088875 0.57733568,7.8695164 0.32916158,7.6213423 -0.16949272,7.1226883 0.02855138,6.3297616 0.70773548,6.1056106 1.4387784,5.8643446 3.4730451,6.2852656 4.8792537,6.9687616 7.4139192,8.2007506 9.2358174,10.57177 9.7527186,13.311091 10.06113,14.94552 9.9340347,15.632429 9.281097,15.860045 8.8790658,16.000193 8.9015073,16.002827 8.5210875,15.770868 Z"
     id="path4" />
  <path
     style="fill:#808080;fill-opacity:0.831373;stroke:#808080;stroke-width:0.101695"
     d="M 14.521088,15.770868 C 14.134449,15.535118 13.982337,15.083213 13.981516,14.16787 13.980808,13.378406 13.676806,11.785536 13.329241,10.750159 11.962539,6.6788239 8.4380811,3.4153084 4.2623109,2.3545231 3.3400134,2.1202288 1.9843311,1.9354501 1.1876583,1.9354501 0.72155858,1.9354501 0.60051998,1.8927007 0.34600748,1.6381882 -0.17256562,1.1196154 0.01723028,0.33349777 0.71674208,0.10263817 1.1373378,-0.03617093 2.9012124,0.11710057 4.2182367,0.40689967 10.655495,1.8233599 15.530828,7.5428515 15.881691,14.089866 c 0.06861,1.280349 -0.0301,1.571303 -0.600594,1.770179 -0.402031,0.140148 -0.37959,0.142782 -0.760009,-0.08918 z"
     id="path5" />
  <path
     style="fill:#808080;fill-opacity:0.831373;stroke:#808080;stroke-width:0.025249"
     d="M 8.6744779,15.901434 C 8.4295034,15.769213 8.2309204,15.578025 8.1368677,15.383842 8.0236911,15.150177 7.9807333,14.943864 7.9517659,14.494857 c -0.069007,-1.06963 -0.38206,-2.094987 -0.9372117,-3.069692 -0.099577,-0.174832 -0.357766,-0.560814 -0.4102316,-0.61328 -0.021773,-0.02177 -0.039587,-0.04734 -0.039587,-0.05682 0,-0.01665 -0.1414488,-0.196336 -0.2774664,-0.352481 C 5.9714066,10.039976 5.1877906,9.3294991 5.1037213,9.3294991 c -0.015772,0 -0.028676,-0.010194 -0.028676,-0.022653 0,-0.021411 -0.3895178,-0.2829027 -0.534377,-0.3587383 C 4.2804376,8.8118737 4.1500137,8.74102 4.1282087,8.7240361 4.1143217,8.7132197 4.0177444,8.6682444 3.9135923,8.624091 3.8094403,8.5799378 3.7015009,8.5331088 3.673727,8.5200266 3.5415311,8.4577581 3.0128944,8.2827279 2.7590508,8.2171797 2.3641672,8.1152117 1.9804247,8.0522391 1.464441,8.004733 0.90365915,7.9531023 0.75150635,7.9266172 0.5865781,7.8519243 0.41374109,7.7736497 0.20568556,7.5634937 0.11214647,7.3727029 0.04499959,7.2357441 0.03787347,7.1969839 0.03787347,6.9687192 c 0,-0.2272785 0.0071079,-0.266356 0.0711852,-0.3913592 C 0.23429723,6.3330423 0.43062996,6.166916 0.70906526,6.0696666 0.8440161,6.0225322 0.93226574,6.0121791 1.2372002,6.007708 c 0.6255924,-0.00917 1.4059512,0.1301511 2.3506989,0.4196899 3.2529817,0.996948 5.6566632,3.7217931 6.2350911,7.0681831 0.2170208,1.255535 0.1532318,1.891843 -0.2228407,2.222875 -0.1279482,0.112625 -0.4643871,0.25443 -0.6367607,0.268388 -0.093584,0.0076 -0.1445317,-0.0075 -0.2889109,-0.08541 z m 0.4832872,-0.04419 C 9.2661057,15.823013 9.4082302,15.761081 9.4735976,15.719618 9.620154,15.626656 9.7553797,15.428083 9.8103321,15.225137 9.9672503,14.64562 9.7821336,13.263191 9.3961587,12.132136 8.5165071,9.5544196 6.4831015,7.508762 3.9135923,6.616536 2.798646,6.2293866 1.5696661,6.0104861 0.98098673,6.0941934 0.67960083,6.137049 0.51459477,6.2102193 0.35146584,6.3733482 0.15787458,6.5669395 0.09202892,6.7408034 0.10686264,7.0192172 c 0.0131319,0.2464716 0.0916912,0.4178494 0.27208763,0.593561 0.21493441,0.2093526 0.34545529,0.246407 1.11073973,0.3153349 1.0798957,0.097264 1.878744,0.3225379 2.7656852,0.7799176 0.6760006,0.3486014 1.1817066,0.7233425 1.7544281,1.3000763 0.8955506,0.901825 1.5261477,2.018265 1.827211,3.234984 0.1252728,0.506279 0.1643484,0.755827 0.1917511,1.224576 0.037411,0.639949 0.1370795,0.937139 0.3923927,1.170022 0.1335133,0.121783 0.4140068,0.281795 0.4939759,0.281795 0.025107,0 0.1342905,-0.02801 0.2426311,-0.06224 z"
     id="path6" />
  <path
     style="fill:#808080;fill-opacity:0.831373;stroke:#808080;stroke-width:0.025249"
     d="M 14.712197,15.813236 C 14.422325,15.655983 14.260721,15.472359 14.16678,15.193501 14.09097,14.968473 14.064657,14.757879 14.038857,14.169843 14.003627,13.366795 13.885047,12.604819 13.643179,11.627203 13.193647,9.8102223 12.316305,8.1141126 11.024529,6.5647355 10.690565,6.1641738 9.8132332,5.288353 9.4178705,4.9608439 7.5672832,3.4278617 5.5709966,2.4885437 3.3328657,2.0976505 2.5963966,1.9690249 1.7874166,1.8821768 1.3129471,1.880802 0.99305021,1.8798751 0.76796164,1.8498808 0.64576932,1.7918967 0.51779568,1.7311693 0.28971157,1.4990138 0.21694709,1.3554201 0.09489516,1.1145622 0.08963574,0.83807236 0.20266464,0.60458583 0.2753669,0.45440299 0.49851778,0.25630396 0.67549464,0.18483768 0.81268519,0.12943779 0.85086138,0.12636138 1.3760696,0.12838222 c 0.7407113,0.00285 1.693074,0.10940282 2.5735783,0.28793856 5.007962,1.01544092 9.2013321,4.63809812 11.0049281,9.50716972 0.452639,1.2219675 0.734972,2.5127915 0.840686,3.8436175 0.05112,0.643554 0.03954,1.364164 -0.02518,1.566841 -0.07843,0.245597 -0.262322,0.393642 -0.629659,0.506912 -0.22427,0.06916 -0.253268,0.06729 -0.428221,-0.02763 z"
     id="path7" />
  <path
     style="fill:#808080;fill-opacity:1;stroke:#808080;stroke-width:0.025249"
     d="M 1.7800533,15.724757 C 1.6262392,15.703602 1.3458324,15.608949 1.1740777,15.520206 0.90479555,15.381072 0.5500755,15.014822 0.41144331,14.732781 0.3534232,14.614742 0.28703474,14.444312 0.26391339,14.354047 c -0.0524951,-0.20494 -0.0526344,-0.568522 -2.9292e-4,-0.764206 0.12510418,-0.467715 0.54644724,-0.964452 1.00978733,-1.190475 0.5172466,-0.25232 0.939171,-0.254576 1.4216239,-0.0076 0.4667497,0.238936 0.803254,0.639463 0.9691711,1.153566 0.070997,0.219989 0.07664,0.262256 0.06583,0.493103 -0.00941,0.201041 -0.027934,0.295926 -0.090885,0.465655 -0.3179018,0.857123 -1.0426115,1.332961 -1.8590944,1.220668 z"
     id="path9" />
  <path
     style="fill:#808080;fill-opacity:1;stroke:#808080;stroke-width:0.025249"
     d="M 8.7387974,15.818233 C 8.244746,15.545904 8.1155353,15.290926 8.0543952,14.467667 8.0058575,13.814103 7.915726,13.350975 7.7227117,12.763361 7.2198971,11.232587 6.2213243,9.923994 4.8856781,9.0455319 4.7190349,8.9359298 4.3781736,8.7452301 4.1282087,8.6217547 3.2890539,8.2072371 2.5337475,8.0007983 1.5023145,7.9040506 0.73242633,7.8318357 0.57689699,7.7848063 0.36744557,7.5608858 0.21802984,7.4011483 0.1523069,7.2533275 0.13408975,7.0360335 0.11265812,6.7803971 0.16859981,6.6163058 0.34047089,6.4306645 0.51428895,6.2429202 0.68768803,6.1616986 1.0048264,6.1194745 c 0.3987875,-0.053095 1.1629814,0.038664 1.9265992,0.2313313 1.7598788,0.4440335 3.1170725,1.1976924 4.3161896,2.3968095 0.986787,0.9867871 1.6933637,2.1203737 2.1332158,3.4223947 0.3223361,0.954157 0.5154593,2.167664 0.4444097,2.792488 -0.058777,0.516892 -0.2372395,0.735283 -0.7229824,0.884738 -0.1957196,0.06022 -0.2025893,0.05967 -0.3634609,-0.029 z"
     id="path10" />
  <path
     style="fill:#808080;fill-opacity:1;stroke:#808080;stroke-width:0.025249"
     d="m 14.909524,15.862834 c -0.05555,-0.01235 -0.126485,-0.02291 -0.157639,-0.02346 -0.03115,-5.51e-4 -0.0514,-0.0095 -0.045,-0.01984 0.0064,-0.01036 -0.04196,-0.05369 -0.107475,-0.09628 -0.06552,-0.04259 -0.152492,-0.112441 -0.193279,-0.15522 -0.04079,-0.04278 -0.09192,-0.07795 -0.11362,-0.07816 -0.03471,-3.4e-4 -0.03491,-0.0034 -0.0016,-0.02525 0.03144,-0.02064 0.02787,-0.0276 -0.02107,-0.04099 -0.04406,-0.01205 -0.05044,-0.02152 -0.02525,-0.03749 0.02726,-0.01728 0.02739,-0.02143 6.44e-4,-0.02175 -0.01818,-2.13e-4 -0.02572,-0.01225 -0.01676,-0.02674 0.009,-0.01449 0.0053,-0.04006 -0.0082,-0.05681 -0.01348,-0.01675 -0.0324,-0.06738 -0.04205,-0.112515 -0.0096,-0.04513 -0.02694,-0.08206 -0.03843,-0.08206 -0.01148,0 -0.01494,-0.02272 -0.0077,-0.0505 0.0073,-0.02777 8.75e-4,-0.0505 -0.01419,-0.0505 -0.01518,0 -0.02021,-0.01873 -0.01128,-0.04201 0.01084,-0.02825 0.0064,-0.03604 -0.01342,-0.02376 -0.03868,0.02391 -0.03813,-0.01653 7.59e-4,-0.05542 0.0176,-0.0176 0.01951,-0.0303 0.0046,-0.0303 -0.01538,0 -0.02305,-0.06123 -0.01905,-0.152134 0.0037,-0.08367 -0.0032,-0.145991 -0.0154,-0.138482 -0.01215,0.0075 -0.01739,-0.05185 -0.01164,-0.131917 0.0075,-0.104926 0.0042,-0.127945 -0.01189,-0.08245 -0.01954,0.05522 -0.02265,0.0495 -0.02486,-0.04568 -0.0017,-0.07374 0.0065,-0.103221 0.02549,-0.09149 0.01956,0.01209 0.02352,-0.01222 0.01313,-0.08057 -0.0082,-0.05383 -0.02121,-0.206854 -0.02895,-0.340045 -0.0077,-0.133191 -0.01835,-0.269535 -0.02357,-0.302988 -0.0052,-0.03345 -0.01695,-0.125975 -0.02607,-0.205606 -0.0091,-0.07963 -0.0264,-0.150852 -0.0384,-0.158269 -0.012,-0.0074 -0.01511,-0.05481 -0.0069,-0.105319 0.01098,-0.06764 0.0069,-0.08692 -0.0153,-0.07317 -0.02182,0.01349 -0.02566,5.68e-4 -0.01383,-0.04657 0.01072,-0.04273 0.006,-0.06524 -0.01362,-0.06524 -0.02019,0 -0.02455,-0.02476 -0.01335,-0.07575 0.01102,-0.05016 0.0068,-0.07575 -0.01262,-0.07575 -0.01938,0 -0.02364,-0.02559 -0.01262,-0.07575 0.01028,-0.04679 0.0065,-0.07575 -0.01,-0.07575 -0.0161,0 -0.02104,-0.03243 -0.0125,-0.08206 0.0113,-0.06569 0.0083,-0.0745 -0.0153,-0.04419 -0.02377,0.03061 -0.02651,0.02455 -0.01427,-0.03156 0.0088,-0.04023 0.0043,-0.06944 -0.01058,-0.06944 -0.01415,0 -0.02573,-0.01203 -0.02573,-0.02674 0,-0.01471 0.0103,-0.02037 0.02289,-0.01259 0.01259,0.0078 0.01695,-0.0086 0.0097,-0.03638 -0.0073,-0.02779 -0.02325,-0.05053 -0.03552,-0.05053 -0.01227,0 -0.0223,-0.01203 -0.0223,-0.02674 0,-0.01471 0.0097,-0.02073 0.0216,-0.01339 0.01188,0.0073 0.01626,-0.01458 0.0097,-0.04871 -0.0065,-0.03413 -0.02238,-0.05556 -0.03524,-0.04762 -0.01366,0.0084 -0.01618,-0.01422 -0.0061,-0.05456 0.01213,-0.04833 0.0088,-0.06372 -0.01123,-0.05136 -0.01983,0.01225 -0.0241,-0.0046 -0.01398,-0.05522 0.0098,-0.04876 0.0013,-0.08617 -0.02563,-0.113072 -0.0438,-0.0438 -0.0545,-0.08087 -0.01658,-0.05744 0.01465,0.0091 0.01464,-0.01675 -4.3e-5,-0.06794 -0.01302,-0.0454 -0.03501,-0.08633 -0.04888,-0.09096 -0.01386,-0.0046 -0.02521,-0.0195 -0.02521,-0.03305 0,-0.01355 0.01123,-0.01769 0.02496,-0.0092 0.01431,0.0088 0.01855,-0.0013 0.0099,-0.02376 -0.0083,-0.02155 -0.02518,-0.03918 -0.03758,-0.03918 -0.0124,0 -0.02255,-0.01203 -0.02255,-0.02674 0,-0.01471 0.01063,-0.02017 0.02363,-0.01214 0.01465,0.0091 0.01464,-0.01675 -4.3e-5,-0.06794 -0.01302,-0.0454 -0.03437,-0.08612 -0.04746,-0.09049 -0.01308,-0.0044 -0.01753,-0.02425 -0.0099,-0.04419 0.0076,-0.01993 0.0024,-0.03624 -0.01168,-0.03624 -0.01407,0 -0.01964,-0.02272 -0.01238,-0.0505 0.0077,-0.02935 7.74e-4,-0.0505 -0.01648,-0.0505 -0.01633,0 -0.02249,-0.01164 -0.0137,-0.02586 0.02088,-0.03379 -0.110671,-0.42862 -0.142812,-0.42862 -0.01357,0 -0.01722,-0.01205 -0.0081,-0.02677 0.02018,-0.03266 -0.03564,-0.175219 -0.06862,-0.175219 -0.01302,0 -0.01611,-0.01224 -0.0069,-0.02719 0.02097,-0.03393 -0.05957,-0.250549 -0.09315,-0.250549 -0.01356,0 -0.01763,-0.01136 -0.009,-0.02525 0.0086,-0.01389 0.0046,-0.02525 -0.0088,-0.02525 -0.01341,0 -0.01847,-0.02259 -0.01125,-0.05019 0.0081,-0.030811 -0.0015,-0.055813 -0.02482,-0.064753 -0.02204,-0.00846 -0.03285,-0.034072 -0.02578,-0.061095 0.0068,-0.025824 -0.0092,-0.067938 -0.03593,-0.094631 -0.02645,-0.026454 -0.0436,-0.061591 -0.0381,-0.078081 0.0055,-0.016491 -0.003,-0.029983 -0.01885,-0.029983 -0.01586,0 -0.02203,-0.011028 -0.0137,-0.024507 0.01846,-0.029872 -0.05453,-0.1774844 -0.08777,-0.1774844 -0.01309,0 -0.01655,-0.018907 -0.0077,-0.042015 0.01011,-0.026348 0.0061,-0.035818 -0.01077,-0.025394 -0.03252,0.020095 -0.06128,-0.044693 -0.04207,-0.094757 0.0076,-0.019757 -0.0077,-0.057393 -0.03393,-0.083637 -0.02624,-0.026244 -0.04346,-0.060498 -0.03825,-0.076121 0.0052,-0.015623 -0.01302,-0.050893 -0.0405,-0.078377 -0.02748,-0.027484 -0.04334,-0.0566 -0.03524,-0.0647 0.0081,-0.0081 8.02e-4,-0.014729 -0.01622,-0.014729 -0.01702,0 -0.02393,-0.011362 -0.01534,-0.025249 0.0086,-0.013887 0.0017,-0.025249 -0.01534,-0.025249 -0.01702,0 -0.02382,-0.00712 -0.01512,-0.015826 0.02141,-0.021414 -0.05253,-0.1609173 -0.0853,-0.1609173 -0.01435,0 -0.01917,-0.011203 -0.0107,-0.024895 0.01916,-0.031004 -0.108284,-0.2528435 -0.145258,-0.2528435 -0.01488,0 -0.01997,-0.00709 -0.01131,-0.015751 0.02216,-0.022157 -0.07795,-0.2111077 -0.120501,-0.2274342 -0.01933,-0.00742 -0.02964,-0.027812 -0.02292,-0.045325 0.0067,-0.017513 -0.02128,-0.067702 -0.06222,-0.1115311 -0.04094,-0.043829 -0.06704,-0.080051 -0.058,-0.080492 0.009,-4.419e-4 -6.01e-4,-0.014644 -0.02143,-0.031561 -0.02083,-0.016917 -0.03787,-0.042506 -0.03787,-0.056864 0,-0.0469 -0.20116,-0.3395577 -0.233553,-0.3397842 -0.01736,-1.214e-4 -0.02872,-0.010194 -0.02525,-0.022383 C 11.782734,7.5283413 11.65476,7.33623 11.61927,7.3355008 11.60109,7.3351271 11.59332,7.3233338 11.602,7.3092928 c 0.0087,-0.01404 -0.01818,-0.059489 -0.05969,-0.100996 -0.04151,-0.041507 -0.07008,-0.075467 -0.0635,-0.075467 0.04102,0 -0.550376,-0.7095903 -0.861112,-1.033206 C 10.063867,5.5227602 9.3421236,4.843959 9.3421236,4.8998751 c 0,0.00982 -0.023634,-0.012184 -0.05252,-0.048906 -0.028886,-0.036722 -0.062972,-0.060308 -0.075747,-0.052413 -0.012775,0.0079 -0.023227,-0.00214 -0.023227,-0.022307 0,-0.020164 -0.014203,-0.042112 -0.031561,-0.048774 -0.017359,-0.00666 -0.041787,-0.016398 -0.054285,-0.021638 C 9.0922849,4.7005978 9.0462058,4.6622246 9.0023849,4.6205638 8.8615776,4.4866975 8.0063135,3.8890548 7.9302846,3.8714003 7.9106116,3.866832 7.8732703,3.8427964 7.8473045,3.8179878 7.8213385,3.7931789 7.789146,3.779647 7.7757658,3.7879165 c -0.01338,0.00827 -0.024328,0.00284 -0.024328,-0.012075 0,-0.03431 -0.1535027,-0.1291025 -0.1812713,-0.1119408 -0.011396,0.00704 -0.020721,0.0017 -0.020721,-0.011874 0,-0.032267 -0.1747919,-0.1401619 -0.1947429,-0.1202107 -0.00844,0.00844 -0.031745,-0.00807 -0.05179,-0.03669 -0.020045,-0.028618 -0.05231,-0.045946 -0.071699,-0.038505 -0.01939,0.00744 -0.035254,0.00185 -0.035254,-0.012419 0,-0.014271 -0.011362,-0.018925 -0.025249,-0.010342 -0.013887,0.00858 -0.025249,0.00168 -0.025249,-0.015343 0,-0.017021 -0.0074,-0.023549 -0.01644,-0.014507 -0.00904,0.00904 -0.028926,2.015e-4 -0.044186,-0.019646 C 7.0474516,3.335742 6.5937065,3.112966 6.5664141,3.1298338 c -0.0119,0.00735 -0.028514,-0.00455 -0.03692,-0.026456 -0.00841,-0.021906 -0.02948,-0.035046 -0.046832,-0.0292 -0.017351,0.00585 -0.04291,-0.00374 -0.056797,-0.021305 C 6.3863724,3.0029267 5.8630413,2.7895725 5.820273,2.8059841 c -0.021041,0.00807 -0.038256,0.00246 -0.038256,-0.012478 0,-0.014957 -0.018876,-0.019914 -0.042015,-0.011035 -0.030704,0.011782 -0.036386,0.00701 -0.021107,-0.017708 0.015279,-0.024723 0.0096,-0.02949 -0.021107,-0.017708 -0.023108,0.00887 -0.042015,0.0065 -0.042015,-0.00527 0,-0.029804 -0.1431193,-0.086174 -0.1725732,-0.06797 -0.01327,0.0082 -0.031105,-0.00327 -0.039633,-0.025495 -0.011193,-0.029169 -0.033584,-0.035869 -0.080508,-0.024092 -0.045572,0.011438 -0.059652,0.00766 -0.047101,-0.012651 0.012515,-0.02025 8.039e-4,-0.023539 -0.03892,-0.010932 -0.042575,0.013513 -0.051825,0.00995 -0.036893,-0.01421 0.014169,-0.022926 0.00779,-0.027585 -0.022087,-0.016122 -0.023108,0.00887 -0.042015,0.00435 -0.042015,-0.010035 0,-0.015182 -0.022517,-0.019011 -0.05366,-0.00913 -0.03853,0.012229 -0.048317,0.00839 -0.034712,-0.013628 0.013763,-0.022269 0.0034,-0.025724 -0.037873,-0.012625 -0.041272,0.013099 -0.051636,0.00964 -0.037873,-0.012624 0.013606,-0.022015 0.00382,-0.025857 -0.034712,-0.013628 -0.03392,0.010766 -0.05366,0.00612 -0.05366,-0.012621 0,-0.016309 -0.017043,-0.023112 -0.037873,-0.015118 -0.02083,0.00799 -0.037873,0.00231 -0.037873,-0.012624 0,-0.014937 -0.016309,-0.0209 -0.036242,-0.013251 -0.019933,0.00765 -0.039817,0.00372 -0.044186,-0.00873 -0.011594,-0.033036 -0.2929632,-0.1012388 -0.341237,-0.082714 -0.029697,0.011396 -0.035354,0.00647 -0.020386,-0.017745 0.015538,-0.025141 0.00711,-0.029959 -0.033732,-0.019279 -0.029945,0.00783 -0.054446,0.00532 -0.054446,-0.00558 0,-0.031073 -0.3273217,-0.1053951 -0.384393,-0.087281 -0.037291,0.011836 -0.045818,0.00759 -0.031451,-0.015657 0.015,-0.02427 3.656e-4,-0.028026 -0.061216,-0.01571 -0.057406,0.011481 -0.075753,0.00781 -0.063122,-0.012625 0.01263,-0.020436 -0.00572,-0.024106 -0.063122,-0.012624 -0.057406,0.011481 -0.075753,0.00781 -0.063122,-0.012625 0.012585,-0.020362 -0.00527,-0.024195 -0.060888,-0.013071 -0.043281,0.00866 -0.085512,0.00471 -0.093845,-0.00878 -0.00833,-0.013483 -0.0457,-0.017873 -0.083038,-0.00976 -0.046939,0.010205 -0.057359,0.00734 -0.033768,-0.00929 0.025412,-0.017913 0.014477,-0.026933 -0.042852,-0.035347 -0.042334,-0.00621 -0.07122,-0.00199 -0.06419,0.00938 0.00703,0.011374 -0.00493,0.02068 -0.026582,0.02068 -0.02165,0 -0.039364,-0.012265 -0.039364,-0.027255 0,-0.017148 -0.02809,-0.021086 -0.075747,-0.010618 -0.049128,0.01079 -0.075747,0.00666 -0.075747,-0.011763 0,-0.01848 -0.03307,-0.023496 -0.094684,-0.014359 -0.063902,0.00948 -0.078484,0.00704 -0.044853,-0.00748 0.068443,-0.029556 -0.1825939,-0.062941 -0.3031774,-0.04032 -0.060328,0.011318 -0.087515,0.00701 -0.087515,-0.013861 0,-0.021336 -0.029828,-0.025239 -0.100996,-0.013215 -0.070479,0.011907 -0.1009959,0.00805 -0.1009959,-0.012774 0,-0.021288 -0.036176,-0.024862 -0.1262449,-0.012474 -0.077758,0.010694 -0.1262449,0.00782 -0.1262449,-0.00749 0,-0.013671 -0.03897,-0.029405 -0.0866,-0.034966 -0.04763,-0.00556 -0.081046,-0.00112 -0.074257,0.00986 0.00679,0.010985 -0.021743,0.019972 -0.063403,0.019972 -0.041661,0 -0.083427,-0.012427 -0.092814,-0.027616 -0.011355,-0.018372 -0.0858,-0.022632 -0.2224187,-0.012727 -0.1297514,0.00941 -0.1867606,0.00654 -0.1548534,-0.00778 0.033756,-0.015151 -0.029149,-0.021777 -0.1897439,-0.019988 -0.132133,0.00147 -0.25313646,-0.00529 -0.26889664,-0.015033 -0.0157602,-0.00974 -0.0553579,-0.016116 -0.087995,-0.014168 -0.0771793,0.00461 -0.12613735,-0.00913 -0.16677779,-0.046801 -0.0180912,-0.016769 -0.0514712,-0.023359 -0.0741779,-0.014646 -0.0251619,0.00966 -0.0349695,0.00562 -0.0251137,-0.010323 0.008894,-0.014391 -0.006285,-0.046488 -0.0337315,-0.071326 -0.0311654,-0.028204 -0.0499026,-0.033652 -0.0499026,-0.014509 0,0.016859 -0.0115474,0.023516 -0.0256608,0.014793 -0.0141135,-0.00872 -0.019423,-0.025952 -0.011799,-0.038288 0.007624,-0.012336 -0.0205957,-0.040248 -0.0627106,-0.062026 -0.0787755,-0.040736 -0.10672789,-0.080524 -0.0380589,-0.054173 0.0224545,0.00862 0.009294,-0.021841 -0.0315612,-0.073045 -0.0385411,-0.048303 -0.0792669,-0.087824 -0.0905017,-0.087825 -0.0112348,-4e-7 -0.0134047,-0.011363 -0.004822,-0.02525 0.008583,-0.013887 0.002902,-0.025249 -0.0126245,-0.025249 -0.0155261,0 -0.0211575,-0.011442 -0.0125143,-0.025427 0.008643,-0.013985 -0.003001,-0.032609 -0.0258759,-0.041387 -0.0335837,-0.012887 -0.035107,-0.020514 -0.007913,-0.039617 0.0204945,-0.014396 0.0235147,-0.02794 0.007715,-0.034598 -0.0405855,-0.017102 -0.023457,-0.34140459 0.0258765,-0.4899339 0.0288262,-0.0867877 0.0855069,-0.17600228 0.16270187,-0.25609071 0.0651556,-0.0675978 0.11203191,-0.12334974 0.10416965,-0.1238933 -0.007862,-5.4356e-4 0.0234329,-0.0173751 0.0695449,-0.0374033 0.0505742,-0.0219664 0.0768697,-0.0476931 0.0662728,-0.0648392 -0.0119761,-0.0193778 -4.4951e-4,-0.0229912 0.0362171,-0.0113537 0.037302,0.0118392 0.0585313,0.0047 0.0692745,-0.0232964 0.0103757,-0.0270385 0.0322204,-0.0350569 0.06616,-0.0242849 0.0336517,0.0106806 0.0448672,0.006693 0.0333932,-0.011872 -0.011367,-0.0183922 0.0127546,-0.027954 0.07052,-0.027954 0.0482881,0 0.10763273,-0.007612 0.13187698,-0.01691527 0.0316136,-0.01213125 0.0384871,-0.007865 0.0243035,0.01508456 -0.015645,0.0253145 0.032283,0.0293887 0.2294112,0.0195014 0.1370534,-0.006874 0.2804337,-0.0206678 0.3186228,-0.0306525 0.05219,-0.01364532 0.069435,-0.0090535 0.069435,0.0184883 0,0.0295594 0.045146,0.0361691 0.2335531,0.0341941 0.1317486,-0.001381 0.2414717,0.008693 0.2517194,0.0231113 0.011975,0.0168484 0.035523,0.014803 0.069092,-0.006002 0.063941,-0.0396275 0.1319197,-0.0430189 0.07686,-0.003835 -0.028583,0.020342 -0.014648,0.0237332 0.05681,0.0138253 0.052076,-0.00722 0.094684,-0.002576 0.094684,0.0103212 0,0.0131054 0.07518,0.0190356 0.1704307,0.0134435 0.1184273,-0.006953 0.1511702,-0.003235 0.1073081,0.0121846 -0.043284,0.0152166 -0.017495,0.0178569 0.082059,0.008401 0.095919,-0.00911 0.1451817,-0.004504 0.1451817,0.0135749 0,0.0173248 0.039369,0.02277 0.1073082,0.0148419 0.08721,-0.0101769 0.095486,-0.00799 0.044186,0.011674 -0.04794,0.0183766 -0.026685,0.0216075 0.088371,0.0134328 0.1111125,-0.007894 0.1346683,-0.004594 0.088372,0.012383 -0.045923,0.0168395 -0.025283,0.0195488 0.075747,0.009943 0.1043798,-0.009924 0.1294632,-0.006334 0.1009959,0.0144548 -0.028778,0.0210162 -0.015135,0.0237268 0.05681,0.0112872 0.061351,-0.0106079 0.094684,-0.006716 0.094684,0.0110565 0,0.0170077 0.031175,0.0220638 0.082059,0.0133087 0.054734,-0.009418 0.070947,-0.006237 0.048688,0.009552 -0.023615,0.016751 0.00591,0.0315037 0.1009959,0.0504633 0.079596,0.0158712 0.1377976,0.0173808 0.1427832,0.003704 0.00463,-0.0126987 0.019502,-0.0230885 0.033052,-0.0230885 0.013549,0 0.017819,0.0110289 0.00949,0.0245088 -0.014726,0.023827 0.079987,0.0600443 0.1274152,0.0487224 0.012992,-0.003101 0.05737,0.008229 0.098619,0.0251776 0.041249,0.016949 0.095218,0.0255285 0.1199327,0.0190655 0.024714,-0.006463 0.045109,0.001388 0.045322,0.0174467 2.19e-4,0.0165211 0.011389,0.0127544 0.025729,-0.008676 0.022006,-0.0328874 0.030105,-0.0316394 0.061523,0.009479 0.020857,0.0272978 0.052734,0.0410002 0.075267,0.0323537 0.021497,-0.008249 0.039086,-0.004746 0.039086,0.007786 0,0.0125315 0.029315,0.0174687 0.065144,0.0109716 0.043721,-0.007928 0.05942,-0.002551 0.047738,0.0163512 -0.010847,0.0175506 2.848e-4,0.0254402 0.029539,0.020936 0.02582,-0.003975 0.070545,0.00581 0.099389,0.0217458 0.028844,0.0159356 0.079973,0.0335598 0.1136204,0.0391648 0.033647,0.005605 0.07822,0.0167559 0.09905,0.0247797 0.1180984,0.045491 0.2294911,0.0705118 0.2519962,0.0566029 0.014158,-0.00875 0.025743,-0.002662 0.025743,0.0135307 0,0.0161922 0.016309,0.0231821 0.036242,0.015533 0.019933,-0.007649 0.039817,-0.004945 0.044186,0.006008 0.00966,0.0242182 0.5552835,0.20841812 0.5709512,0.19275028 0.00611,-0.006108 0.027608,0.005396 0.047777,0.025565 0.031284,0.031284 0.083919,0.043382 0.1501739,0.034515 0.00886,-0.00119 0.023065,0.00837 0.031561,0.021245 0.023204,0.035152 0.4087427,0.1846874 0.4347415,0.1686193 0.01241,-0.00767 0.022563,-1.85e-5 0.022563,0.017003 0,0.017021 0.00724,0.023708 0.016087,0.014861 0.00885,-0.00885 0.047528,0.0063 0.085957,0.033665 0.038429,0.027364 0.08102,0.049752 0.094648,0.049752 0.013628,0 0.056507,0.016462 0.095288,0.036581 0.038781,0.02012 0.079847,0.030811 0.091258,0.023759 0.011411,-0.00705 0.020747,-1.193e-4 0.020747,0.015407 0,0.015526 0.010392,0.021807 0.023093,0.013957 0.012701,-0.00785 0.026903,-0.00489 0.031561,0.00658 0.015716,0.038695 0.3265204,0.1789348 0.3643711,0.1644101 0.023365,-0.00897 0.034751,-0.00132 0.030177,0.02026 -0.00404,0.019062 0.0097,0.034659 0.030529,0.034659 0.02083,0 0.047238,0.014701 0.058684,0.032668 0.012448,0.01954 0.041621,0.026063 0.072597,0.016232 0.033481,-0.010626 0.04592,-0.00695 0.035191,0.010414 -0.017842,0.028869 0.2736808,0.186464 0.2986808,0.1614641 0.00802,-0.00802 0.014578,-0.00155 0.014578,0.014366 0,0.03463 0.188923,0.1356189 0.21149,0.1130517 0.00866,-0.00866 0.015751,-0.00279 0.015751,0.013058 0,0.015845 0.034086,0.046435 0.075747,0.067979 0.041661,0.021544 0.075747,0.03374 0.075747,0.027103 0,-0.00664 0.030064,0.015795 0.066809,0.04985 0.036745,0.034054 0.080802,0.061917 0.097905,0.061917 0.017102,0 0.045452,0.0173 0.063,0.038443 0.019465,0.023454 0.051438,0.032244 0.082,0.022544 0.030639,-0.00972 0.04399,-0.00602 0.034378,0.00953 -0.018992,0.030729 0.866084,0.6263462 0.9145785,0.6154714 0.018752,-0.00421 0.02714,0.00361 0.01864,0.017361 -0.018665,0.030201 0.1358668,0.1452211 0.1811402,0.1348246 0.017621,-0.00405 0.029018,0.00687 0.025327,0.024255 -0.00369,0.017387 0.00749,0.033549 0.02485,0.035916 0.017359,0.00237 0.043594,0.00572 0.0583,0.00746 0.014707,0.00174 0.020072,0.013945 0.011922,0.02713 -0.014166,0.022921 0.1172194,0.1367212 0.1654454,0.1433006 0.01272,0.00174 0.03639,0.00458 0.05259,0.00631 0.0162,0.00174 0.02186,0.010756 0.01257,0.020044 -0.02909,0.029094 0.06111,0.1068832 0.105528,0.091007 0.023,-0.00822 0.03319,-0.00546 0.02265,0.00614 -0.02949,0.032448 0.08157,0.1371455 0.126993,0.1197143 0.02334,-0.00895 0.03283,-0.00457 0.02334,0.010778 -0.0088,0.014228 0.01207,0.052226 0.04636,0.084439 0.03429,0.032213 0.06235,0.050513 0.06235,0.040665 0,-0.00985 0.03523,0.022221 0.07829,0.071264 0.04306,0.049042 0.08859,0.082804 0.101175,0.075025 0.01259,-0.00778 0.03045,0.00646 0.0397,0.031643 0.01946,0.052964 0.207441,0.2225289 0.2467,0.2225289 0.01457,0 0.02723,0.011362 0.02814,0.025249 0.0023,0.035215 0.667441,0.6951045 0.667441,0.6621831 0,-0.03915 0.02802,-0.00467 0.03503,0.043109 0.008,0.054762 0.24517,0.2935028 0.273893,0.2757505 0.01248,-0.00771 0.01909,0.00324 0.01469,0.024335 -0.01059,0.050757 0.379629,0.5022225 0.415125,0.4802844 0.01701,-0.010514 0.02158,-0.00193 0.0121,0.022763 -0.01729,0.045067 0.06262,0.1304496 0.09476,0.101253 0.0115,-0.010445 0.01449,-9.64e-4 0.0066,0.02107 -0.0084,0.02366 0.02094,0.084554 0.07172,0.148735 0.0473,0.05977 0.08713,0.092872 0.08851,0.073559 0.0014,-0.019313 0.0099,-0.00888 0.01894,0.023186 0.009,0.032065 0.02778,0.056959 0.04167,0.05532 0.01389,-0.00164 0.03194,0.023255 0.04011,0.05532 0.0082,0.032065 0.02912,0.055105 0.04655,0.051199 0.01743,-0.00391 0.02657,0.00746 0.0203,0.025249 -0.01501,0.042628 0.07602,0.1712196 0.121204,0.1712196 0.01945,0 0.02943,0.015452 0.02219,0.034338 -0.0072,0.018886 0.01366,0.067175 0.04647,0.1073081 0.0328,0.040133 0.159855,0.2289646 0.282335,0.4196247 0.122479,0.1906602 0.234063,0.3396256 0.247964,0.3310344 0.0139,-0.00859 0.01997,1.641e-4 0.0135,0.019456 -0.01077,0.032068 0.07227,0.2085129 0.141272,0.3001902 0.01568,0.02083 0.0498,0.079955 0.07582,0.1313881 0.02602,0.051433 0.06785,0.1155553 0.09295,0.1424939 0.0251,0.026939 0.03874,0.05587 0.03032,0.064292 -0.0084,0.00842 -1.62e-4,0.015312 0.01835,0.015312 0.01852,0 0.02667,0.007 0.01812,0.015547 -0.02445,0.024455 0.110313,0.2638208 0.13867,0.2462952 0.01575,-0.00974 0.0189,0.0047 0.0083,0.038108 -0.01157,0.036459 -0.0048,0.058484 0.02095,0.068374 0.02091,0.00802 0.03188,0.030597 0.02437,0.050161 -0.0075,0.019564 0.0039,0.042288 0.02525,0.050498 0.02139,0.00821 0.03276,0.030934 0.02525,0.050498 -0.0075,0.019564 0.0039,0.042288 0.02525,0.050498 0.02139,0.00821 0.03276,0.030934 0.02525,0.050498 -0.0075,0.019564 0.0045,0.042538 0.0267,0.051054 0.02219,0.00852 0.03452,0.024913 0.0274,0.036439 -0.01641,0.026546 0.09161,0.2514912 0.120758,0.2514912 0.01194,0 0.01469,0.011362 0.0061,0.025249 -0.0086,0.013887 -0.0029,0.025249 0.01262,0.025249 0.01553,0 0.02141,0.011028 0.01308,0.024507 -0.01394,0.022552 0.04945,0.1735128 0.08512,0.2027334 0.0085,0.00694 0.01665,0.023987 0.01816,0.037873 0.0063,0.058393 0.04258,0.1388694 0.06253,0.1388694 0.01183,0 0.01542,0.015883 0.008,0.035295 -0.0074,0.019412 0.01025,0.057465 0.03934,0.08456 0.03248,0.03026 0.04671,0.065346 0.03688,0.09095 -0.0092,0.024059 -0.0035,0.041685 0.01344,0.041685 0.01619,0 0.02211,0.01186 0.01315,0.026355 -0.009,0.014496 -0.0013,0.044441 0.01707,0.066545 0.01835,0.022104 0.03463,0.052852 0.0362,0.068329 0.0016,0.015476 0.0046,0.043012 0.0067,0.06119 0.0021,0.018178 0.01439,0.026535 0.02728,0.01857 0.02259,-0.013959 0.05812,0.059357 0.0502,0.1035698 -0.01088,0.060747 0.005,0.1111445 0.03007,0.095626 0.01881,-0.01163 0.02238,2.74e-4 0.01092,0.03638 -0.0094,0.02964 -0.006,0.05366 0.0076,0.05366 0.01352,0 0.01909,0.02103 0.01237,0.04673 -0.0067,0.0257 0.0038,0.06273 0.02333,0.08229 0.01955,0.01955 0.03085,0.04965 0.02511,0.06689 -0.0057,0.01723 8e-4,0.03134 0.01454,0.03134 0.01374,0 0.0194,0.02137 0.01257,0.04749 -0.0068,0.02612 0.0039,0.06271 0.02379,0.08131 0.01992,0.01861 0.03096,0.05391 0.02454,0.07845 -0.0068,0.02596 0.0054,0.05116 0.02907,0.06026 0.02241,0.0086 0.04074,0.02645 0.04074,0.03967 0,0.01322 -0.01096,0.01727 -0.02435,0.009 -0.01339,-0.0083 -0.0082,0.0237 0.01162,0.07105 0.01979,0.04735 0.02912,0.09296 0.02074,0.101337 -0.0084,0.0084 0.0034,0.0224 0.02625,0.03116 0.02282,0.0088 0.04149,0.02674 0.04149,0.03996 0,0.01322 -0.0103,0.01767 -0.02289,0.0099 -0.01259,-0.0078 -0.0167,0.0096 -0.0091,0.03852 0.01068,0.04084 0.019,0.0451 0.03705,0.01897 0.01512,-0.02188 0.01761,-0.0049 0.0071,0.04836 -0.01,0.05066 -0.006,0.08206 0.0103,0.08206 0.01455,0 0.01992,0.01704 0.01193,0.03787 -0.008,0.02083 -0.0048,0.03791 0.0071,0.03795 0.0119,4.1e-5 0.02258,0.04202 0.02374,0.09328 0.0012,0.05126 0.01415,0.09722 0.02888,0.102133 0.01473,0.0049 0.02098,0.03111 0.01389,0.05821 -0.0071,0.02711 -0.0013,0.04929 0.01294,0.04929 0.01421,0 0.02023,0.02556 0.01338,0.05681 -0.01009,0.04604 -0.0072,0.04963 0.01519,0.01894 0.02133,-0.02922 0.02515,-0.01625 0.01672,0.05681 -0.006,0.05208 -7.72e-4,0.09468 0.01163,0.09468 0.0124,0 0.0153,0.01891 0.0064,0.04202 -0.01122,0.02925 -0.0067,0.03617 0.01503,0.02276 0.02357,-0.01457 0.027,0.0029 0.01411,0.0716 -0.01009,0.05378 -0.007,0.09086 0.0075,0.09086 0.01352,0 0.02147,0.0284 0.01766,0.06312 -0.0038,0.03472 0.0019,0.06312 0.01259,0.06312 0.01074,0 0.0141,0.02841 0.0075,0.06312 -0.0066,0.03472 -0.0013,0.06312 0.01175,0.06312 0.0131,0 0.01858,0.0357 0.01218,0.07933 -0.008,0.05437 -0.0028,0.07384 0.01662,0.06187 0.01962,-0.01213 0.02355,0.0061 0.01286,0.05954 -0.0085,0.04235 -0.0047,0.077 0.0084,0.077 0.01309,0 0.02064,0.04016 0.01678,0.08925 -0.0039,0.04908 0.0032,0.08292 0.01573,0.07518 0.01292,-0.008 0.01624,0.02608 0.0077,0.0788 -0.01012,0.06235 -0.0063,0.08742 0.01172,0.0763 0.01776,-0.01097 0.02347,0.01793 0.01694,0.0857 -0.0054,0.05624 2.12e-4,0.09604 0.01251,0.08844 0.0123,-0.0076 0.01759,0.03728 0.01175,0.09974 -0.0058,0.06246 -0.0015,0.113557 0.0095,0.113557 0.01108,0 0.01761,0.04545 0.01451,0.100996 -0.0031,0.05555 0.0048,0.100996 0.01759,0.100996 0.01278,0 0.01688,0.03693 0.0091,0.08206 -0.01075,0.0625 -0.0077,0.07303 0.01287,0.04418 0.02239,-0.03142 0.02705,-0.0282 0.02737,0.01894 2.12e-4,0.03125 -0.01098,0.05681 -0.02486,0.05681 -0.01389,0 -0.02507,0.02557 -0.02486,0.05681 2.73e-4,0.0402 0.0066,0.04708 0.02148,0.02354 0.012,-0.01892 0.01718,0.0444 0.01201,0.14681 -0.005,0.09904 6.2e-5,0.174426 0.01124,0.16752 0.01117,-0.0069 0.01787,0.219494 0.01487,0.503111 -0.0031,0.293112 0.0046,0.521864 0.01778,0.530023 0.03449,0.02131 0.02811,0.06187 -0.0097,0.06187 -0.02274,0 -0.03177,0.03491 -0.02914,0.112707 0.0023,0.06895 -0.0059,0.106697 -0.02123,0.09723 -0.0157,-0.0097 -0.01858,0.01025 -0.0077,0.05353 0.01226,0.04885 0.0089,0.06377 -0.01165,0.0511 -0.0204,-0.01261 -0.0235,-1.63e-4 -0.0105,0.04207 0.01016,0.03299 0.01046,0.05243 6.73e-4,0.04321 -0.0098,-0.0092 -0.05819,0.02795 -0.107562,0.0826 -0.05053,0.05593 -0.166544,0.1365 -0.265395,0.184316 -0.106828,0.05167 -0.162357,0.09108 -0.141752,0.100602 0.01863,0.0086 0.0026,0.0097 -0.03556,0.0024 -0.04101,-0.0078 -0.06943,-0.0021 -0.06943,0.01396 0,0.01497 -0.01186,0.01989 -0.02636,0.01093 -0.0145,-0.009 -0.04006,-0.006 -0.05681,0.0067 -0.01808,0.01362 -0.07151,0.01382 -0.131452,4.93e-4 z M 0.90212512,0.14886379 c -0.00839,-0.00839 -0.0301673,-0.009287 -0.0483939,-0.001993 -0.0201419,0.00806 -0.014159,0.014043 0.0152546,0.0152546 0.0266166,0.001096 0.0415293,-0.004871 0.0331393,-0.0132616 z"
     id="path11" />
</svg>
